<svg xmlns="http://www.w3.org/2000/svg" viewBox="0 0 100 100" width="100" height="100">
  <circle cx="50" cy="50" r="45" fill="#f1c40f" stroke="#d35400" stroke-width="3"/>
  <!-- Mane -->
  <path d="M50 10 L60 5 L70 15 L80 10 L85 20 L95 25 L90 35 L95 45 L90 55 L95 65 L85 75 L75 70 L65 80 L50 75 L35 80 L25 70 L15 75 L5 65 L10 55 L5 45 L10 35 L5 25 L15 20 L20 10 L30 15 L40 5 Z" fill="#e67e22" stroke="#d35400" stroke-width="2"/>
  <!-- Face -->
  <circle cx="50" cy="50" r="25" fill="#f39c12"/>
  <!-- Ears -->
  <circle cx="35" cy="35" r="8" fill="#f39c12"/>
  <circle cx="65" cy="35" r="8" fill="#f39c12"/>
  <!-- Eyes -->
  <circle cx="42" cy="48" r="3" fill="#2c3e50"/>
  <circle cx="58" cy="48" r="3" fill="#2c3e50"/>
  <!-- Nose/Mouth -->
  <path d="M47 55 Q50 58 53 55" stroke="#2c3e50" stroke-width="2" fill="none"/>
  <circle cx="50" cy="53" r="2" fill="#2c3e50"/>
</svg>
